<svg xmlns="http://www.w3.org/2000/svg" version="1.1" xmlns:xlink="http://www.w3.org/1999/xlink" xmlns:svgjs="http://svgjs.com/svgjs" width="1440" height="570" preserveAspectRatio="none" viewBox="0 0 1440 570"><g mask="url(&quot;#SvgjsMask1095&quot;)" fill="none"><rect width="1440" height="570" x="0" y="0" fill="url(#SvgjsLinearGradient1096)"></rect><path d="M-42.25 378.62L-42.25 378.62" stroke="#132e65" stroke-width="1.5"></path><path d="M-42.25 378.62L88.63 342.43" stroke="#132e65" stroke-width="1.5"></path><path d="M-42.25 378.62L-71.28 561.31" stroke="#132e65" stroke-width="1.5"></path><path d="M-42.25 378.62L99.07 547.27" stroke="#132e65" stroke-width="1.5"></path><path d="M-42.25 378.62L210.72 362.96" stroke="#132e65" stroke-width="1.5"></path><path d="M-42.25 378.62L187.74 547.51" stroke="#132e65" stroke-width="1.5"></path><path d="M-42.25 378.62L-78.63 681.88" stroke="#132e65" stroke-width="1.5"></path><path d="M-71.28 561.31L-71.28 561.31" stroke="#132e65" stroke-width="1.5"></path><path d="M-71.28 561.31L-78.63 681.88" stroke="#132e65" stroke-width="1.5"></path><path d="M-71.28 561.31L61.26 668.2" stroke="#132e65" stroke-width="1.5"></path><path d="M-71.28 561.31L99.07 547.27" stroke="#132e65" stroke-width="1.5"></path><path d="M-78.63 681.88L-78.63 681.88" stroke="#132e65" stroke-width="1.5"></path><path d="M-78.63 681.88L61.26 668.2" stroke="#132e65" stroke-width="1.5"></path><path d="M-78.63 681.88L99.07 547.27" stroke="#132e65" stroke-width="1.5"></path><path d="M-78.63 681.88L187.74 547.51" stroke="#132e65" stroke-width="1.5"></path><path d="M-78.63 681.88L224.35 708.55" stroke="#132e65" stroke-width="1.5"></path><path d="M88.63 342.43L88.63 342.43" stroke="#132e65" stroke-width="1.5"></path><path d="M88.63 342.43L210.72 362.96" stroke="#132e65" stroke-width="1.5"></path><path d="M99.07 547.27L99.07 547.27" stroke="#132e65" stroke-width="1.5"></path><path d="M99.07 547.27L187.74 547.51" stroke="#132e65" stroke-width="1.5"></path><path d="M99.07 547.27L61.26 668.2" stroke="#132e65" stroke-width="1.5"></path><path d="M99.07 547.27L224.35 708.55" stroke="#132e65" stroke-width="1.5"></path><path d="M99.07 547.27L88.63 342.43" stroke="#132e65" stroke-width="1.5"></path><path d="M61.26 668.2L61.26 668.2" stroke="#132e65" stroke-width="1.5"></path><path d="M61.26 668.2L224.35 708.55" stroke="#132e65" stroke-width="1.5"></path><path d="M210.72 362.96L210.72 362.96" stroke="#132e65" stroke-width="1.5"></path><path d="M210.72 362.96L187.74 547.51" stroke="#132e65" stroke-width="1.5"></path><path d="M210.72 362.96L397.14 340" stroke="#132e65" stroke-width="1.5"></path><path d="M210.72 362.96L99.07 547.27" stroke="#132e65" stroke-width="1.5"></path><path d="M187.74 547.51L187.74 547.51" stroke="#132e65" stroke-width="1.5"></path><path d="M187.74 547.51L224.35 708.55" stroke="#132e65" stroke-width="1.5"></path><path d="M224.35 708.55L224.35 708.55" stroke="#132e65" stroke-width="1.5"></path><path d="M224.35 708.55L398.19 712.17" stroke="#132e65" stroke-width="1.5"></path><path d="M397.14 340L397.14 340" stroke="#132e65" stroke-width="1.5"></path><path d="M397.14 340L545.75 354.36" stroke="#132e65" stroke-width="1.5"></path><path d="M397.14 340L398.27 507.79" stroke="#132e65" stroke-width="1.5"></path><path d="M397.14 340L539.08 513.56" stroke="#132e65" stroke-width="1.5"></path><path d="M397.14 340L664.88 409.22" stroke="#132e65" stroke-width="1.5"></path><path d="M397.14 340L187.74 547.51" stroke="#132e65" stroke-width="1.5"></path><path d="M398.27 507.79L398.27 507.79" stroke="#132e65" stroke-width="1.5"></path><path d="M398.27 507.79L539.08 513.56" stroke="#132e65" stroke-width="1.5"></path><path d="M398.27 507.79L398.19 712.17" stroke="#132e65" stroke-width="1.5"></path><path d="M398.27 507.79L515.1 678.13" stroke="#132e65" stroke-width="1.5"></path><path d="M398.19 712.17L398.19 712.17" stroke="#132e65" stroke-width="1.5"></path><path d="M398.19 712.17L515.1 678.13" stroke="#132e65" stroke-width="1.5"></path><path d="M398.19 712.17L539.08 513.56" stroke="#132e65" stroke-width="1.5"></path><path d="M398.19 712.17L187.74 547.51" stroke="#132e65" stroke-width="1.5"></path><path d="M398.19 712.17L667.27 662.57" stroke="#132e65" stroke-width="1.5"></path><path d="M545.75 354.36L545.75 354.36" stroke="#132e65" stroke-width="1.5"></path><path d="M545.75 354.36L664.88 409.22" stroke="#132e65" stroke-width="1.5"></path><path d="M539.08 513.56L539.08 513.56" stroke="#132e65" stroke-width="1.5"></path><path d="M539.08 513.56L545.75 354.36" stroke="#132e65" stroke-width="1.5"></path><path d="M539.08 513.56L664.88 409.22" stroke="#132e65" stroke-width="1.5"></path><path d="M515.1 678.13L515.1 678.13" stroke="#132e65" stroke-width="1.5"></path><path d="M664.88 409.22L664.88 409.22" stroke="#132e65" stroke-width="1.5"></path><path d="M664.88 409.22L857.04 385.25" stroke="#132e65" stroke-width="1.5"></path><path d="M664.88 409.22L853.54 513.53" stroke="#132e65" stroke-width="1.5"></path><path d="M664.88 409.22L838.93 247.11" stroke="#132e65" stroke-width="1.5"></path><path d="M667.27 662.57L667.27 662.57" stroke="#132e65" stroke-width="1.5"></path><path d="M667.27 662.57L515.1 678.13" stroke="#132e65" stroke-width="1.5"></path><path d="M667.27 662.57L848.42 655.73" stroke="#132e65" stroke-width="1.5"></path><path d="M838.93 247.11L838.93 247.11" stroke="#132e65" stroke-width="1.5"></path><path d="M838.93 247.11L857.04 385.25" stroke="#132e65" stroke-width="1.5"></path><path d="M838.93 247.11L941.86 341.51" stroke="#132e65" stroke-width="1.5"></path><path d="M838.93 247.11L971.66 65.13" stroke="#132e65" stroke-width="1.5"></path><path d="M838.93 247.11L853.54 513.53" stroke="#132e65" stroke-width="1.5"></path><path d="M838.93 247.11L545.75 354.36" stroke="#132e65" stroke-width="1.5"></path><path d="M857.04 385.25L857.04 385.25" stroke="#132e65" stroke-width="1.5"></path><path d="M857.04 385.25L941.86 341.51" stroke="#132e65" stroke-width="1.5"></path><path d="M857.04 385.25L853.54 513.53" stroke="#132e65" stroke-width="1.5"></path><path d="M857.04 385.25L1009.54 545.58" stroke="#132e65" stroke-width="1.5"></path><path d="M853.54 513.53L853.54 513.53" stroke="#132e65" stroke-width="1.5"></path><path d="M853.54 513.53L848.42 655.73" stroke="#132e65" stroke-width="1.5"></path><path d="M853.54 513.53L1009.54 545.58" stroke="#132e65" stroke-width="1.5"></path><path d="M848.42 655.73L848.42 655.73" stroke="#132e65" stroke-width="1.5"></path><path d="M848.42 655.73L960.08 639.25" stroke="#132e65" stroke-width="1.5"></path><path d="M965.42 -108.86L965.42 -108.86" stroke="#132e65" stroke-width="1.5"></path><path d="M965.42 -108.86L1113.76 -90.12" stroke="#132e65" stroke-width="1.5"></path><path d="M965.42 -108.86L971.66 65.13" stroke="#132e65" stroke-width="1.5"></path><path d="M965.42 -108.86L1140.67 59.52" stroke="#132e65" stroke-width="1.5"></path><path d="M965.42 -108.86L1302.29 -71.2" stroke="#132e65" stroke-width="1.5"></path><path d="M971.66 65.13L971.66 65.13" stroke="#132e65" stroke-width="1.5"></path><path d="M971.66 65.13L1140.67 59.52" stroke="#132e65" stroke-width="1.5"></path><path d="M971.66 65.13L1113.76 -90.12" stroke="#132e65" stroke-width="1.5"></path><path d="M941.86 341.51L941.86 341.51" stroke="#132e65" stroke-width="1.5"></path><path d="M941.86 341.51L853.54 513.53" stroke="#132e65" stroke-width="1.5"></path><path d="M941.86 341.51L1009.54 545.58" stroke="#132e65" stroke-width="1.5"></path><path d="M941.86 341.51L1153.69 393.63" stroke="#132e65" stroke-width="1.5"></path><path d="M941.86 341.51L1147.98 488.8" stroke="#132e65" stroke-width="1.5"></path><path d="M1009.54 545.58L1009.54 545.58" stroke="#132e65" stroke-width="1.5"></path><path d="M1009.54 545.58L960.08 639.25" stroke="#132e65" stroke-width="1.5"></path><path d="M1009.54 545.58L1147.98 488.8" stroke="#132e65" stroke-width="1.5"></path><path d="M1009.54 545.58L1145.48 646.38" stroke="#132e65" stroke-width="1.5"></path><path d="M960.08 639.25L960.08 639.25" stroke="#132e65" stroke-width="1.5"></path><path d="M960.08 639.25L853.54 513.53" stroke="#132e65" stroke-width="1.5"></path><path d="M960.08 639.25L1145.48 646.38" stroke="#132e65" stroke-width="1.5"></path><path d="M1113.76 -90.12L1113.76 -90.12" stroke="#132e65" stroke-width="1.5"></path><path d="M1113.76 -90.12L1140.67 59.52" stroke="#132e65" stroke-width="1.5"></path><path d="M1113.76 -90.12L1302.29 -71.2" stroke="#132e65" stroke-width="1.5"></path><path d="M1140.67 59.52L1140.67 59.52" stroke="#132e65" stroke-width="1.5"></path><path d="M1140.67 59.52L1154.42 189.54" stroke="#132e65" stroke-width="1.5"></path><path d="M1140.67 59.52L1288.5 78.13" stroke="#132e65" stroke-width="1.5"></path><path d="M1140.67 59.52L1302.29 -71.2" stroke="#132e65" stroke-width="1.5"></path><path d="M1154.42 189.54L1154.42 189.54" stroke="#132e65" stroke-width="1.5"></path><path d="M1154.42 189.54L1294.6 251.38" stroke="#132e65" stroke-width="1.5"></path><path d="M1153.69 393.63L1153.69 393.63" stroke="#132e65" stroke-width="1.5"></path><path d="M1153.69 393.63L1147.98 488.8" stroke="#132e65" stroke-width="1.5"></path><path d="M1153.69 393.63L1308.28 339.75" stroke="#132e65" stroke-width="1.5"></path><path d="M1147.98 488.8L1147.98 488.8" stroke="#132e65" stroke-width="1.5"></path><path d="M1147.98 488.8L1243.2 551.39" stroke="#132e65" stroke-width="1.5"></path><path d="M1145.48 646.38L1145.48 646.38" stroke="#132e65" stroke-width="1.5"></path><path d="M1145.48 646.38L1243.2 551.39" stroke="#132e65" stroke-width="1.5"></path><path d="M1145.48 646.38L1147.98 488.8" stroke="#132e65" stroke-width="1.5"></path><path d="M1145.48 646.38L1305.62 661.92" stroke="#132e65" stroke-width="1.5"></path><path d="M1302.29 -71.2L1302.29 -71.2" stroke="#132e65" stroke-width="1.5"></path><path d="M1302.29 -71.2L1400.88 -79.15" stroke="#132e65" stroke-width="1.5"></path><path d="M1302.29 -71.2L1288.5 78.13" stroke="#132e65" stroke-width="1.5"></path><path d="M1288.5 78.13L1288.5 78.13" stroke="#132e65" stroke-width="1.5"></path><path d="M1288.5 78.13L1417.84 83.73" stroke="#132e65" stroke-width="1.5"></path><path d="M1288.5 78.13L1294.6 251.38" stroke="#132e65" stroke-width="1.5"></path><path d="M1288.5 78.13L1154.42 189.54" stroke="#132e65" stroke-width="1.5"></path><path d="M1288.5 78.13L1390.87 232.92" stroke="#132e65" stroke-width="1.5"></path><path d="M1294.6 251.38L1294.6 251.38" stroke="#132e65" stroke-width="1.5"></path><path d="M1294.6 251.38L1308.28 339.75" stroke="#132e65" stroke-width="1.5"></path><path d="M1294.6 251.38L1390.87 232.92" stroke="#132e65" stroke-width="1.5"></path><path d="M1308.28 339.75L1308.28 339.75" stroke="#132e65" stroke-width="1.5"></path><path d="M1308.28 339.75L1390.87 232.92" stroke="#132e65" stroke-width="1.5"></path><path d="M1308.28 339.75L1435.8 511.78" stroke="#132e65" stroke-width="1.5"></path><path d="M1308.28 339.75L1154.42 189.54" stroke="#132e65" stroke-width="1.5"></path><path d="M1308.28 339.75L1147.98 488.8" stroke="#132e65" stroke-width="1.5"></path><path d="M1243.2 551.39L1243.2 551.39" stroke="#132e65" stroke-width="1.5"></path><path d="M1243.2 551.39L1305.62 661.92" stroke="#132e65" stroke-width="1.5"></path><path d="M1243.2 551.39L1153.69 393.63" stroke="#132e65" stroke-width="1.5"></path><path d="M1305.62 661.92L1305.62 661.92" stroke="#132e65" stroke-width="1.5"></path><path d="M1305.62 661.92L1423.25 685.39" stroke="#132e65" stroke-width="1.5"></path><path d="M1305.62 661.92L1435.8 511.78" stroke="#132e65" stroke-width="1.5"></path><path d="M1400.88 -79.15L1400.88 -79.15" stroke="#132e65" stroke-width="1.5"></path><path d="M1400.88 -79.15L1542.59 -71.77" stroke="#132e65" stroke-width="1.5"></path><path d="M1400.88 -79.15L1417.84 83.73" stroke="#132e65" stroke-width="1.5"></path><path d="M1400.88 -79.15L1288.5 78.13" stroke="#132e65" stroke-width="1.5"></path><path d="M1417.84 83.73L1417.84 83.73" stroke="#132e65" stroke-width="1.5"></path><path d="M1417.84 83.73L1390.87 232.92" stroke="#132e65" stroke-width="1.5"></path><path d="M1417.84 83.73L1302.29 -71.2" stroke="#132e65" stroke-width="1.5"></path><path d="M1417.84 83.73L1609.23 52.94" stroke="#132e65" stroke-width="1.5"></path><path d="M1390.87 232.92L1390.87 232.92" stroke="#132e65" stroke-width="1.5"></path><path d="M1435.8 511.78L1435.8 511.78" stroke="#132e65" stroke-width="1.5"></path><path d="M1435.8 511.78L1558.18 512.39" stroke="#132e65" stroke-width="1.5"></path><path d="M1435.8 511.78L1423.25 685.39" stroke="#132e65" stroke-width="1.5"></path><path d="M1435.8 511.78L1243.2 551.39" stroke="#132e65" stroke-width="1.5"></path><path d="M1423.25 685.39L1423.25 685.39" stroke="#132e65" stroke-width="1.5"></path><path d="M1423.25 685.39L1606.62 643.97" stroke="#132e65" stroke-width="1.5"></path><path d="M1423.25 685.39L1558.18 512.39" stroke="#132e65" stroke-width="1.5"></path><path d="M1423.25 685.39L1243.2 551.39" stroke="#132e65" stroke-width="1.5"></path><path d="M1542.59 -71.77L1542.59 -71.77" stroke="#132e65" stroke-width="1.5"></path><path d="M1542.59 -71.77L1609.23 52.94" stroke="#132e65" stroke-width="1.5"></path><path d="M1542.59 -71.77L1417.84 83.73" stroke="#132e65" stroke-width="1.5"></path><path d="M1542.59 -71.77L1302.29 -71.2" stroke="#132e65" stroke-width="1.5"></path><path d="M1609.23 52.94L1609.23 52.94" stroke="#132e65" stroke-width="1.5"></path><path d="M1609.23 52.94L1601.19 235.06" stroke="#132e65" stroke-width="1.5"></path><path d="M1609.23 52.94L1400.88 -79.15" stroke="#132e65" stroke-width="1.5"></path><path d="M1609.23 52.94L1390.87 232.92" stroke="#132e65" stroke-width="1.5"></path><path d="M1609.23 52.94L1604.44 343.03" stroke="#132e65" stroke-width="1.5"></path><path d="M1601.19 235.06L1601.19 235.06" stroke="#132e65" stroke-width="1.5"></path><path d="M1601.19 235.06L1604.44 343.03" stroke="#132e65" stroke-width="1.5"></path><path d="M1601.19 235.06L1390.87 232.92" stroke="#132e65" stroke-width="1.5"></path><path d="M1604.44 343.03L1604.44 343.03" stroke="#132e65" stroke-width="1.5"></path><path d="M1604.44 343.03L1558.18 512.39" stroke="#132e65" stroke-width="1.5"></path><path d="M1604.44 343.03L1435.8 511.78" stroke="#132e65" stroke-width="1.5"></path><path d="M1604.44 343.03L1390.87 232.92" stroke="#132e65" stroke-width="1.5"></path><path d="M1604.44 343.03L1308.28 339.75" stroke="#132e65" stroke-width="1.5"></path><path d="M1558.18 512.39L1558.18 512.39" stroke="#132e65" stroke-width="1.5"></path><path d="M1558.18 512.39L1606.62 643.97" stroke="#132e65" stroke-width="1.5"></path><path d="M1606.62 643.97L1606.62 643.97" stroke="#132e65" stroke-width="1.5"></path><circle r="5" cx="-42.25" cy="378.62" fill="#132e65"></circle><circle r="5" cx="-71.28" cy="561.31" fill="#132e65"></circle><circle r="5" cx="-78.63" cy="681.88" fill="#132e65"></circle><circle r="5" cx="88.63" cy="342.43" fill="#132e65"></circle><circle r="5" cx="99.07" cy="547.27" fill="#132e65"></circle><circle r="5" cx="61.26" cy="668.2" fill="#132e65"></circle><circle r="5" cx="210.72" cy="362.96" fill="#132e65"></circle><circle r="5" cx="187.74" cy="547.51" fill="#132e65"></circle><circle r="5" cx="224.35" cy="708.55" fill="#132e65"></circle><circle r="5" cx="397.14" cy="340" fill="#132e65"></circle><circle r="5" cx="398.27" cy="507.79" fill="#132e65"></circle><circle r="5" cx="398.19" cy="712.17" fill="#132e65"></circle><circle r="5" cx="545.75" cy="354.36" fill="#132e65"></circle><circle r="5" cx="539.08" cy="513.56" fill="#132e65"></circle><circle r="5" cx="515.1" cy="678.13" fill="#132e65"></circle><circle r="5" cx="664.88" cy="409.22" fill="#132e65"></circle><circle r="5" cx="667.27" cy="662.57" fill="#132e65"></circle><circle r="5" cx="838.93" cy="247.11" fill="#132e65"></circle><circle r="5" cx="857.04" cy="385.25" fill="#132e65"></circle><circle r="5" cx="853.54" cy="513.53" fill="#132e65"></circle><circle r="5" cx="848.42" cy="655.73" fill="#132e65"></circle><circle r="5" cx="965.42" cy="-108.86" fill="#132e65"></circle><circle r="5" cx="971.66" cy="65.13" fill="#132e65"></circle><circle r="5" cx="941.86" cy="341.51" fill="#132e65"></circle><circle r="5" cx="1009.54" cy="545.58" fill="#132e65"></circle><circle r="5" cx="960.08" cy="639.25" fill="#132e65"></circle><circle r="5" cx="1113.76" cy="-90.12" fill="#132e65"></circle><circle r="5" cx="1140.67" cy="59.52" fill="#132e65"></circle><circle r="5" cx="1154.42" cy="189.54" fill="#132e65"></circle><circle r="5" cx="1153.69" cy="393.63" fill="#132e65"></circle><circle r="5" cx="1147.98" cy="488.8" fill="#132e65"></circle><circle r="5" cx="1145.48" cy="646.38" fill="#132e65"></circle><circle r="5" cx="1302.29" cy="-71.2" fill="#132e65"></circle><circle r="5" cx="1288.5" cy="78.13" fill="#132e65"></circle><circle r="5" cx="1294.6" cy="251.38" fill="#132e65"></circle><circle r="5" cx="1308.28" cy="339.75" fill="#132e65"></circle><circle r="5" cx="1243.2" cy="551.39" fill="#132e65"></circle><circle r="5" cx="1305.62" cy="661.92" fill="#132e65"></circle><circle r="5" cx="1400.88" cy="-79.15" fill="#132e65"></circle><circle r="5" cx="1417.84" cy="83.73" fill="#132e65"></circle><circle r="5" cx="1390.87" cy="232.92" fill="#132e65"></circle><circle r="5" cx="1435.8" cy="511.78" fill="#132e65"></circle><circle r="5" cx="1423.25" cy="685.39" fill="#132e65"></circle><circle r="5" cx="1542.59" cy="-71.77" fill="#132e65"></circle><circle r="5" cx="1609.23" cy="52.94" fill="#132e65"></circle><circle r="5" cx="1601.19" cy="235.06" fill="#132e65"></circle><circle r="5" cx="1604.44" cy="343.03" fill="#132e65"></circle><circle r="5" cx="1558.18" cy="512.39" fill="#132e65"></circle><circle r="5" cx="1606.62" cy="643.97" fill="#132e65"></circle><path d="M-69.94 541.5L-69.94 541.5" stroke="hsl(228.5, 77.2%, 51.5%)" stroke-width="1.5"></path><path d="M-69.94 541.5L-50.62 688.63" stroke="hsl(228.5, 77.2%, 51.5%)" stroke-width="1.5"></path><path d="M41.78 696.36L41.78 696.36" stroke="hsl(228.5, 77.2%, 51.5%)" stroke-width="1.5"></path><path d="M41.78 696.36L-50.62 688.63" stroke="hsl(228.5, 77.2%, 51.5%)" stroke-width="1.5"></path><path d="M41.78 696.36L209.37 665.31" stroke="hsl(228.5, 77.2%, 51.5%)" stroke-width="1.5"></path><path d="M41.78 696.36L-69.94 541.5" stroke="hsl(228.5, 77.2%, 51.5%)" stroke-width="1.5"></path><path d="M41.78 696.36L206.44 495.22" stroke="hsl(228.5, 77.2%, 51.5%)" stroke-width="1.5"></path><path d="M209.37 665.31L209.37 665.31" stroke="hsl(228.5, 77.2%, 51.5%)" stroke-width="1.5"></path><path d="M209.37 665.31L350.01 697.11" stroke="hsl(228.5, 77.2%, 51.5%)" stroke-width="1.5"></path><path d="M209.37 665.31L206.44 495.22" stroke="hsl(228.5, 77.2%, 51.5%)" stroke-width="1.5"></path><path d="M209.37 665.31L399.18 541.05" stroke="hsl(228.5, 77.2%, 51.5%)" stroke-width="1.5"></path><path d="M209.37 665.31L-50.62 688.63" stroke="hsl(228.5, 77.2%, 51.5%)" stroke-width="1.5"></path><path d="M209.37 665.31L-69.94 541.5" stroke="hsl(228.5, 77.2%, 51.5%)" stroke-width="1.5"></path><path d="M350.01 697.11L350.01 697.11" stroke="hsl(228.5, 77.2%, 51.5%)" stroke-width="1.5"></path><path d="M691.82 551.1L691.82 551.1" stroke="hsl(228.5, 77.2%, 51.5%)" stroke-width="1.5"></path><path d="M691.82 551.1L800.94 506.74" stroke="hsl(228.5, 77.2%, 51.5%)" stroke-width="1.5"></path><path d="M691.82 551.1L666.33 691.22" stroke="hsl(228.5, 77.2%, 51.5%)" stroke-width="1.5"></path><path d="M691.82 551.1L552 523.28" stroke="hsl(228.5, 77.2%, 51.5%)" stroke-width="1.5"></path><path d="M800.94 506.74L800.94 506.74" stroke="hsl(228.5, 77.2%, 51.5%)" stroke-width="1.5"></path><path d="M800.94 506.74L845.31 397.88" stroke="hsl(228.5, 77.2%, 51.5%)" stroke-width="1.5"></path><path d="M800.94 506.74L849.6 657.17" stroke="hsl(228.5, 77.2%, 51.5%)" stroke-width="1.5"></path><path d="M800.94 506.74L984.51 549.56" stroke="hsl(228.5, 77.2%, 51.5%)" stroke-width="1.5"></path><path d="M800.94 506.74L950.05 651.47" stroke="hsl(228.5, 77.2%, 51.5%)" stroke-width="1.5"></path><path d="M1263.27 -86.58L1263.27 -86.58" stroke="hsl(228.5, 77.2%, 51.5%)" stroke-width="1.5"></path><path d="M1263.27 -86.58L1296.05 62.21" stroke="hsl(228.5, 77.2%, 51.5%)" stroke-width="1.5"></path><path d="M1263.27 -86.58L1416.05 72.27" stroke="hsl(228.5, 77.2%, 51.5%)" stroke-width="1.5"></path><path d="M1263.27 -86.58L1241.98 197.61" stroke="hsl(228.5, 77.2%, 51.5%)" stroke-width="1.5"></path><path d="M1263.27 -86.58L1109.71 212.88" stroke="hsl(228.5, 77.2%, 51.5%)" stroke-width="1.5"></path><path d="M1264.93 660.09L1264.93 660.09" stroke="hsl(228.5, 77.2%, 51.5%)" stroke-width="1.5"></path><path d="M1264.93 660.09L1156.96 697.46" stroke="hsl(228.5, 77.2%, 51.5%)" stroke-width="1.5"></path><path d="M1264.93 660.09L1296.59 493.26" stroke="hsl(228.5, 77.2%, 51.5%)" stroke-width="1.5"></path><path d="M1264.93 660.09L1443.97 673.28" stroke="hsl(228.5, 77.2%, 51.5%)" stroke-width="1.5"></path><path d="M1264.93 660.09L1100.67 497.4" stroke="hsl(228.5, 77.2%, 51.5%)" stroke-width="1.5"></path><path d="M1264.93 660.09L1438.99 504.62" stroke="hsl(228.5, 77.2%, 51.5%)" stroke-width="1.5"></path><path d="M1443.97 673.28L1443.97 673.28" stroke="hsl(228.5, 77.2%, 51.5%)" stroke-width="1.5"></path><path d="M1443.97 673.28L1586.45 639.16" stroke="hsl(228.5, 77.2%, 51.5%)" stroke-width="1.5"></path><path d="M1443.97 673.28L1544.8 554.07" stroke="hsl(228.5, 77.2%, 51.5%)" stroke-width="1.5"></path><path d="M1443.97 673.28L1438.99 504.62" stroke="hsl(228.5, 77.2%, 51.5%)" stroke-width="1.5"></path><path d="M1586.45 639.16L1586.45 639.16" stroke="hsl(228.5, 77.2%, 51.5%)" stroke-width="1.5"></path><path d="M1586.45 639.16L1544.8 554.07" stroke="hsl(228.5, 77.2%, 51.5%)" stroke-width="1.5"></path><path d="M1586.45 639.16L1438.99 504.62" stroke="hsl(228.5, 77.2%, 51.5%)" stroke-width="1.5"></path><path d="M-50.62 688.63L-50.62 688.63" stroke="hsl(228.5, 77.2%, 51.5%)" stroke-width="1.5"></path><path d="M206.44 495.22L206.44 495.22" stroke="hsl(228.5, 77.2%, 51.5%)" stroke-width="1.5"></path><path d="M206.44 495.22L399.18 541.05" stroke="hsl(228.5, 77.2%, 51.5%)" stroke-width="1.5"></path><path d="M206.44 495.22L350.01 697.11" stroke="hsl(228.5, 77.2%, 51.5%)" stroke-width="1.5"></path><path d="M399.18 541.05L399.18 541.05" stroke="hsl(228.5, 77.2%, 51.5%)" stroke-width="1.5"></path><path d="M399.18 541.05L552 523.28" stroke="hsl(228.5, 77.2%, 51.5%)" stroke-width="1.5"></path><path d="M399.18 541.05L350.01 697.11" stroke="hsl(228.5, 77.2%, 51.5%)" stroke-width="1.5"></path><path d="M552 523.28L552 523.28" stroke="hsl(228.5, 77.2%, 51.5%)" stroke-width="1.5"></path><path d="M552 523.28L666.33 691.22" stroke="hsl(228.5, 77.2%, 51.5%)" stroke-width="1.5"></path><path d="M552 523.28L800.94 506.74" stroke="hsl(228.5, 77.2%, 51.5%)" stroke-width="1.5"></path><path d="M552 523.28L350.01 697.11" stroke="hsl(228.5, 77.2%, 51.5%)" stroke-width="1.5"></path><path d="M552 523.28L845.31 397.88" stroke="hsl(228.5, 77.2%, 51.5%)" stroke-width="1.5"></path><path d="M666.33 691.22L666.33 691.22" stroke="hsl(228.5, 77.2%, 51.5%)" stroke-width="1.5"></path><path d="M666.33 691.22L849.6 657.17" stroke="hsl(228.5, 77.2%, 51.5%)" stroke-width="1.5"></path><path d="M666.33 691.22L800.94 506.74" stroke="hsl(228.5, 77.2%, 51.5%)" stroke-width="1.5"></path><path d="M666.33 691.22L950.05 651.47" stroke="hsl(228.5, 77.2%, 51.5%)" stroke-width="1.5"></path><path d="M666.33 691.22L399.18 541.05" stroke="hsl(228.5, 77.2%, 51.5%)" stroke-width="1.5"></path><path d="M845.31 397.88L845.31 397.88" stroke="hsl(228.5, 77.2%, 51.5%)" stroke-width="1.5"></path><path d="M845.31 397.88L980.31 395.3" stroke="hsl(228.5, 77.2%, 51.5%)" stroke-width="1.5"></path><path d="M849.6 657.17L849.6 657.17" stroke="hsl(228.5, 77.2%, 51.5%)" stroke-width="1.5"></path><path d="M849.6 657.17L950.05 651.47" stroke="hsl(228.5, 77.2%, 51.5%)" stroke-width="1.5"></path><path d="M980.31 395.3L980.31 395.3" stroke="hsl(228.5, 77.2%, 51.5%)" stroke-width="1.5"></path><path d="M980.31 395.3L1123.38 410.32" stroke="hsl(228.5, 77.2%, 51.5%)" stroke-width="1.5"></path><path d="M984.51 549.56L984.51 549.56" stroke="hsl(228.5, 77.2%, 51.5%)" stroke-width="1.5"></path><path d="M984.51 549.56L950.05 651.47" stroke="hsl(228.5, 77.2%, 51.5%)" stroke-width="1.5"></path><path d="M984.51 549.56L1100.67 497.4" stroke="hsl(228.5, 77.2%, 51.5%)" stroke-width="1.5"></path><path d="M984.51 549.56L980.31 395.3" stroke="hsl(228.5, 77.2%, 51.5%)" stroke-width="1.5"></path><path d="M984.51 549.56L849.6 657.17" stroke="hsl(228.5, 77.2%, 51.5%)" stroke-width="1.5"></path><path d="M984.51 549.56L1123.38 410.32" stroke="hsl(228.5, 77.2%, 51.5%)" stroke-width="1.5"></path><path d="M950.05 651.47L950.05 651.47" stroke="hsl(228.5, 77.2%, 51.5%)" stroke-width="1.5"></path><path d="M950.05 651.47L1156.96 697.46" stroke="hsl(228.5, 77.2%, 51.5%)" stroke-width="1.5"></path><path d="M950.05 651.47L1100.67 497.4" stroke="hsl(228.5, 77.2%, 51.5%)" stroke-width="1.5"></path><path d="M950.05 651.47L980.31 395.3" stroke="hsl(228.5, 77.2%, 51.5%)" stroke-width="1.5"></path><path d="M1109.71 212.88L1109.71 212.88" stroke="hsl(228.5, 77.2%, 51.5%)" stroke-width="1.5"></path><path d="M1109.71 212.88L1241.98 197.61" stroke="hsl(228.5, 77.2%, 51.5%)" stroke-width="1.5"></path><path d="M1109.71 212.88L1123.38 410.32" stroke="hsl(228.5, 77.2%, 51.5%)" stroke-width="1.5"></path><path d="M1109.71 212.88L1273.37 352.69" stroke="hsl(228.5, 77.2%, 51.5%)" stroke-width="1.5"></path><path d="M1109.71 212.88L980.31 395.3" stroke="hsl(228.5, 77.2%, 51.5%)" stroke-width="1.5"></path><path d="M1109.71 212.88L1296.05 62.21" stroke="hsl(228.5, 77.2%, 51.5%)" stroke-width="1.5"></path><path d="M1109.71 212.88L1100.67 497.4" stroke="hsl(228.5, 77.2%, 51.5%)" stroke-width="1.5"></path><path d="M1123.38 410.32L1123.38 410.32" stroke="hsl(228.5, 77.2%, 51.5%)" stroke-width="1.5"></path><path d="M1123.38 410.32L1100.67 497.4" stroke="hsl(228.5, 77.2%, 51.5%)" stroke-width="1.5"></path><path d="M1123.38 410.32L1273.37 352.69" stroke="hsl(228.5, 77.2%, 51.5%)" stroke-width="1.5"></path><path d="M1123.38 410.32L1296.59 493.26" stroke="hsl(228.5, 77.2%, 51.5%)" stroke-width="1.5"></path><path d="M1100.67 497.4L1100.67 497.4" stroke="hsl(228.5, 77.2%, 51.5%)" stroke-width="1.5"></path><path d="M1156.96 697.46L1156.96 697.46" stroke="hsl(228.5, 77.2%, 51.5%)" stroke-width="1.5"></path><path d="M1156.96 697.46L1100.67 497.4" stroke="hsl(228.5, 77.2%, 51.5%)" stroke-width="1.5"></path><path d="M1156.96 697.46L984.51 549.56" stroke="hsl(228.5, 77.2%, 51.5%)" stroke-width="1.5"></path><path d="M1296.05 62.21L1296.05 62.21" stroke="hsl(228.5, 77.2%, 51.5%)" stroke-width="1.5"></path><path d="M1296.05 62.21L1416.05 72.27" stroke="hsl(228.5, 77.2%, 51.5%)" stroke-width="1.5"></path><path d="M1296.05 62.21L1241.98 197.61" stroke="hsl(228.5, 77.2%, 51.5%)" stroke-width="1.5"></path><path d="M1241.98 197.61L1241.98 197.61" stroke="hsl(228.5, 77.2%, 51.5%)" stroke-width="1.5"></path><path d="M1241.98 197.61L1273.37 352.69" stroke="hsl(228.5, 77.2%, 51.5%)" stroke-width="1.5"></path><path d="M1241.98 197.61L1416.05 72.27" stroke="hsl(228.5, 77.2%, 51.5%)" stroke-width="1.5"></path><path d="M1241.98 197.61L1123.38 410.32" stroke="hsl(228.5, 77.2%, 51.5%)" stroke-width="1.5"></path><path d="M1273.37 352.69L1273.37 352.69" stroke="hsl(228.5, 77.2%, 51.5%)" stroke-width="1.5"></path><path d="M1273.37 352.69L1296.59 493.26" stroke="hsl(228.5, 77.2%, 51.5%)" stroke-width="1.5"></path><path d="M1296.59 493.26L1296.59 493.26" stroke="hsl(228.5, 77.2%, 51.5%)" stroke-width="1.5"></path><path d="M1296.59 493.26L1438.99 504.62" stroke="hsl(228.5, 77.2%, 51.5%)" stroke-width="1.5"></path><path d="M1416.05 72.27L1416.05 72.27" stroke="hsl(228.5, 77.2%, 51.5%)" stroke-width="1.5"></path><path d="M1416.05 72.27L1582.29 86.81" stroke="hsl(228.5, 77.2%, 51.5%)" stroke-width="1.5"></path><path d="M1416.05 72.27L1605.1 -70.9" stroke="hsl(228.5, 77.2%, 51.5%)" stroke-width="1.5"></path><path d="M1416.05 72.27L1595.99 245.86" stroke="hsl(228.5, 77.2%, 51.5%)" stroke-width="1.5"></path><path d="M1449.04 343.84L1449.04 343.84" stroke="hsl(228.5, 77.2%, 51.5%)" stroke-width="1.5"></path><path d="M1449.04 343.84L1569.78 373.33" stroke="hsl(228.5, 77.2%, 51.5%)" stroke-width="1.5"></path><path d="M1449.04 343.84L1438.99 504.62" stroke="hsl(228.5, 77.2%, 51.5%)" stroke-width="1.5"></path><path d="M1449.04 343.84L1273.37 352.69" stroke="hsl(228.5, 77.2%, 51.5%)" stroke-width="1.5"></path><path d="M1449.04 343.84L1595.99 245.86" stroke="hsl(228.5, 77.2%, 51.5%)" stroke-width="1.5"></path><path d="M1438.99 504.62L1438.99 504.62" stroke="hsl(228.5, 77.2%, 51.5%)" stroke-width="1.5"></path><path d="M1438.99 504.62L1544.8 554.07" stroke="hsl(228.5, 77.2%, 51.5%)" stroke-width="1.5"></path><path d="M1438.99 504.62L1569.78 373.33" stroke="hsl(228.5, 77.2%, 51.5%)" stroke-width="1.5"></path><path d="M1605.1 -70.9L1605.1 -70.9" stroke="hsl(228.5, 77.2%, 51.5%)" stroke-width="1.5"></path><path d="M1605.1 -70.9L1582.29 86.81" stroke="hsl(228.5, 77.2%, 51.5%)" stroke-width="1.5"></path><path d="M1605.1 -70.9L1595.99 245.86" stroke="hsl(228.5, 77.2%, 51.5%)" stroke-width="1.5"></path><path d="M1582.29 86.81L1582.29 86.81" stroke="hsl(228.5, 77.2%, 51.5%)" stroke-width="1.5"></path><path d="M1582.29 86.81L1595.99 245.86" stroke="hsl(228.5, 77.2%, 51.5%)" stroke-width="1.5"></path><path d="M1595.99 245.86L1595.99 245.86" stroke="hsl(228.5, 77.2%, 51.5%)" stroke-width="1.5"></path><path d="M1595.99 245.86L1569.78 373.33" stroke="hsl(228.5, 77.2%, 51.5%)" stroke-width="1.5"></path><path d="M1569.78 373.33L1569.78 373.33" stroke="hsl(228.5, 77.2%, 51.5%)" stroke-width="1.5"></path><path d="M1569.78 373.33L1544.8 554.07" stroke="hsl(228.5, 77.2%, 51.5%)" stroke-width="1.5"></path><path d="M1569.78 373.33L1586.45 639.16" stroke="hsl(228.5, 77.2%, 51.5%)" stroke-width="1.5"></path><path d="M1569.78 373.33L1582.29 86.81" stroke="hsl(228.5, 77.2%, 51.5%)" stroke-width="1.5"></path><path d="M1544.8 554.07L1544.8 554.07" stroke="hsl(228.5, 77.2%, 51.5%)" stroke-width="1.5"></path><path d="M1544.8 554.07L1449.04 343.84" stroke="hsl(228.5, 77.2%, 51.5%)" stroke-width="1.5"></path><path d="M1544.8 554.07L1296.59 493.26" stroke="hsl(228.5, 77.2%, 51.5%)" stroke-width="1.5"></path><circle r="25" cx="-69.94" cy="541.5" fill="url(#SvgjsRadialGradient1097)"></circle><circle r="25" cx="41.78" cy="696.36" fill="url(#SvgjsRadialGradient1097)"></circle><circle r="25" cx="209.37" cy="665.31" fill="url(#SvgjsRadialGradient1097)"></circle><circle r="25" cx="350.01" cy="697.11" fill="url(#SvgjsRadialGradient1097)"></circle><circle r="25" cx="691.82" cy="551.1" fill="url(#SvgjsRadialGradient1097)"></circle><circle r="25" cx="800.94" cy="506.74" fill="url(#SvgjsRadialGradient1097)"></circle><circle r="25" cx="1263.27" cy="-86.58" fill="url(#SvgjsRadialGradient1097)"></circle><circle r="25" cx="1264.93" cy="660.09" fill="url(#SvgjsRadialGradient1097)"></circle><circle r="25" cx="1443.97" cy="673.28" fill="url(#SvgjsRadialGradient1097)"></circle><circle r="25" cx="1586.45" cy="639.16" fill="url(#SvgjsRadialGradient1097)"></circle><circle r="5" cx="-50.62" cy="688.63" fill="#8b9ad9"></circle><circle r="5" cx="206.44" cy="495.22" fill="#8b9ad9"></circle><circle r="5" cx="399.18" cy="541.05" fill="#8b9ad9"></circle><circle r="5" cx="552" cy="523.28" fill="#8b9ad9"></circle><circle r="5" cx="666.33" cy="691.22" fill="#8b9ad9"></circle><circle r="5" cx="845.31" cy="397.88" fill="#8b9ad9"></circle><circle r="5" cx="849.6" cy="657.17" fill="#8b9ad9"></circle><circle r="5" cx="980.31" cy="395.3" fill="#8b9ad9"></circle><circle r="5" cx="984.51" cy="549.56" fill="#8b9ad9"></circle><circle r="5" cx="950.05" cy="651.47" fill="#8b9ad9"></circle><circle r="5" cx="1109.71" cy="212.88" fill="#8b9ad9"></circle><circle r="5" cx="1123.38" cy="410.32" fill="#8b9ad9"></circle><circle r="5" cx="1100.67" cy="497.4" fill="#8b9ad9"></circle><circle r="5" cx="1156.96" cy="697.46" fill="#8b9ad9"></circle><circle r="5" cx="1296.05" cy="62.21" fill="#8b9ad9"></circle><circle r="5" cx="1241.98" cy="197.61" fill="#8b9ad9"></circle><circle r="5" cx="1273.37" cy="352.69" fill="#8b9ad9"></circle><circle r="5" cx="1296.59" cy="493.26" fill="#8b9ad9"></circle><circle r="5" cx="1416.05" cy="72.27" fill="#8b9ad9"></circle><circle r="5" cx="1449.04" cy="343.84" fill="#8b9ad9"></circle><circle r="5" cx="1438.99" cy="504.62" fill="#8b9ad9"></circle><circle r="5" cx="1605.1" cy="-70.9" fill="#8b9ad9"></circle><circle r="5" cx="1582.29" cy="86.81" fill="#8b9ad9"></circle><circle r="5" cx="1595.99" cy="245.86" fill="#8b9ad9"></circle><circle r="5" cx="1569.78" cy="373.33" fill="#8b9ad9"></circle><circle r="5" cx="1544.8" cy="554.07" fill="#8b9ad9"></circle></g><defs><mask id="SvgjsMask1095"><rect width="1440" height="570" fill="#ffffff"></rect></mask><linearGradient x1="15.1%" y1="-38.16%" x2="84.9%" y2="138.16%" gradientUnits="userSpaceOnUse" id="SvgjsLinearGradient1096"><stop stop-color="#0e2a47" offset="0"></stop><stop stop-color="rgba(131, 151, 177, 1)" offset="1"></stop></linearGradient><radialGradient id="SvgjsRadialGradient1097"><stop stop-color="#ffffff" offset="0.1"></stop><stop stop-color="#1735b3" offset="0.2"></stop><stop stop-color="rgba(23, 53, 179, 0)" offset="1"></stop></radialGradient></defs></svg>